<svg id="visual" viewBox="0 0 900 600" width="900" height="600" xmlns="http://www.w3.org/2000/svg" xmlns:xlink="http://www.w3.org/1999/xlink" version="1.1"><rect x="0" y="0" width="900" height="600" fill="#001220"></rect><path d="M0 400L21.5 396.2C43 392.3 86 384.7 128.8 380.5C171.7 376.3 214.3 375.7 257.2 382C300 388.3 343 401.7 385.8 400.2C428.7 398.7 471.3 382.3 514.2 384.7C557 387 600 408 642.8 406.8C685.7 405.7 728.3 382.3 771.2 382C814 381.7 857 404.3 878.5 415.7L900 427L900 601L878.5 601C857 601 814 601 771.2 601C728.3 601 685.7 601 642.8 601C600 601 557 601 514.2 601C471.3 601 428.7 601 385.8 601C343 601 300 601 257.2 601C214.3 601 171.7 601 128.8 601C86 601 43 601 21.5 601L0 601Z" fill="#fa7268"></path><path d="M0 429L21.5 437.5C43 446 86 463 128.8 459.3C171.7 455.7 214.3 431.3 257.2 420C300 408.7 343 410.3 385.8 414.5C428.7 418.7 471.3 425.3 514.2 428C557 430.7 600 429.3 642.8 435.5C685.7 441.7 728.3 455.3 771.2 450.3C814 445.3 857 421.7 878.5 409.8L900 398L900 601L878.5 601C857 601 814 601 771.2 601C728.3 601 685.7 601 642.8 601C600 601 557 601 514.2 601C471.3 601 428.7 601 385.8 601C343 601 300 601 257.2 601C214.3 601 171.7 601 128.8 601C86 601 43 601 21.5 601L0 601Z" fill="#ef5f67"></path><path d="M0 470L21.5 467C43 464 86 458 128.8 457.8C171.7 457.7 214.3 463.3 257.2 463.7C300 464 343 459 385.8 465.3C428.7 471.7 471.3 489.3 514.2 487.8C557 486.3 600 465.7 642.8 463.7C685.7 461.7 728.3 478.3 771.2 480C814 481.7 857 468.3 878.5 461.7L900 455L900 601L878.5 601C857 601 814 601 771.2 601C728.3 601 685.7 601 642.8 601C600 601 557 601 514.2 601C471.3 601 428.7 601 385.8 601C343 601 300 601 257.2 601C214.3 601 171.7 601 128.8 601C86 601 43 601 21.5 601L0 601Z" fill="#e34c67"></path><path d="M0 492L21.5 492.5C43 493 86 494 128.8 499C171.7 504 214.3 513 257.2 513.3C300 513.7 343 505.3 385.8 500.7C428.7 496 471.3 495 514.2 493.7C557 492.3 600 490.7 642.8 489C685.7 487.3 728.3 485.7 771.2 487.3C814 489 857 494 878.5 496.5L900 499L900 601L878.5 601C857 601 814 601 771.2 601C728.3 601 685.7 601 642.8 601C600 601 557 601 514.2 601C471.3 601 428.7 601 385.8 601C343 601 300 601 257.2 601C214.3 601 171.7 601 128.8 601C86 601 43 601 21.5 601L0 601Z" fill="#d53867"></path><path d="M0 529L21.5 531.3C43 533.7 86 538.3 128.8 543.7C171.7 549 214.3 555 257.2 559C300 563 343 565 385.8 564C428.7 563 471.3 559 514.2 558.2C557 557.3 600 559.7 642.8 559C685.7 558.3 728.3 554.7 771.2 555.5C814 556.3 857 561.7 878.5 564.3L900 567L900 601L878.5 601C857 601 814 601 771.2 601C728.3 601 685.7 601 642.8 601C600 601 557 601 514.2 601C471.3 601 428.7 601 385.8 601C343 601 300 601 257.2 601C214.3 601 171.7 601 128.8 601C86 601 43 601 21.5 601L0 601Z" fill="#c62368"></path></svg>